<svg width="50" height="50" viewBox="0 0 50 50" fill="none" xmlns="http://www.w3.org/2000/svg">
<g clip-path="url(#clip0_1_65)">
<path d="M41.6667 16.6667H35.8125C34.875 15.0417 33.5833 13.6458 32.0208 12.5833L35.4167 9.1875L32.4792 6.25L27.9583 10.7708C27 10.5417 26.0208 10.4167 25 10.4167C23.9792 10.4167 23 10.5417 22.0625 10.7708L17.5208 6.25L14.5833 9.1875L17.9583 12.5833C16.4167 13.6458 15.125 15.0417 14.1875 16.6667H8.33334V20.8333H12.6875C12.5833 21.5208 12.5 22.2083 12.5 22.9167V25H8.33334V29.1667H12.5V31.25C12.5 31.9583 12.5833 32.6458 12.6875 33.3333H8.33334V37.5H14.1875C16.3542 41.2292 20.375 43.75 25 43.75C29.625 43.75 33.6458 41.2292 35.8125 37.5H41.6667V33.3333H37.3125C37.4167 32.6458 37.5 31.9583 37.5 31.25V29.1667H41.6667V25H37.5V22.9167C37.5 22.2083 37.4167 21.5208 37.3125 20.8333H41.6667V16.6667ZM29.1667 33.3333H20.8333V29.1667H29.1667V33.3333ZM29.1667 25H20.8333V20.8333H29.1667V25Z" fill="#6F42C1"/>
</g>
<defs>
<clipPath id="clip0_1_65">
<rect width="50" height="50" fill="white"/>
</clipPath>
</defs>
</svg>
